<svg id="svg" version="1.1" xmlns="http://www.w3.org/2000/svg" xmlns:xlink="http://www.w3.org/1999/xlink" width="400" height="400" viewBox="0, 0, 400,400"><g id="svgg"><path id="path0" d="M123.145 108.606 L 122.266 108.959 122.266 148.021 C 122.266 186.240,122.282 187.091,123.021 187.486 C 124.465 188.259,136.105 188.004,136.847 187.183 C 137.423 186.547,137.495 184.248,137.559 164.429 C 137.598 152.304,137.733 140.713,137.858 138.672 L 138.086 134.961 148.438 153.655 C 159.622 173.852,159.473 173.645,162.789 173.612 C 165.695 173.583,165.445 173.932,176.082 155.078 C 181.234 145.947,185.867 137.773,186.377 136.914 L 187.305 135.352 187.500 161.262 C 187.689 186.341,187.720 187.190,188.454 187.727 C 189.458 188.461,201.932 188.536,202.656 187.813 C 203.247 187.222,203.332 109.917,202.743 108.984 C 202.250 108.202,189.194 107.892,187.434 108.621 C 186.111 109.169,186.749 108.107,173.249 132.227 C 167.718 142.109,163.051 150.347,162.880 150.532 C 162.709 150.717,161.856 149.575,160.985 147.993 C 145.751 120.329,139.469 109.535,138.225 108.887 C 136.765 108.127,124.888 107.905,123.145 108.606 M212.012 108.621 C 210.870 109.293,211.001 109.540,221.400 126.224 C 226.940 135.111,232.135 143.476,232.944 144.811 L 234.416 147.240 232.503 150.085 C 228.576 155.924,210.032 185.353,209.856 186.025 C 209.420 187.693,210.243 187.891,217.608 187.891 C 221.728 187.891,224.939 187.720,225.470 187.473 C 226.622 186.937,226.236 187.508,235.553 172.559 C 239.938 165.522,243.640 159.766,243.781 159.766 C 243.921 159.766,247.524 165.522,251.787 172.559 C 256.050 179.595,260.099 185.923,260.784 186.621 L 262.031 187.891 269.127 187.891 C 279.236 187.891,279.185 187.956,274.684 180.816 C 273.006 178.154,267.544 169.513,262.547 161.614 L 253.461 147.251 254.355 145.793 C 254.846 144.992,259.363 137.832,264.391 129.883 C 277.379 109.352,277.073 109.861,276.818 109.195 C 276.621 108.682,275.446 108.594,268.791 108.594 L 260.994 108.594 260.204 109.599 C 259.769 110.151,256.037 116.040,251.910 122.685 C 247.784 129.329,244.282 134.766,244.129 134.766 C 243.976 134.766,240.532 129.363,236.476 122.760 C 232.420 116.157,228.633 110.225,228.060 109.577 L 227.018 108.398 219.857 108.308 C 215.475 108.253,212.430 108.374,212.012 108.621 M303.257 112.869 C 296.288 113.971,290.856 116.067,288.879 118.416 L 287.873 119.612 287.979 143.248 L 288.086 166.885 289.955 168.577 C 294.990 173.135,312.480 176.523,311.535 172.757 C 311.400 172.222,311.189 171.277,311.065 170.658 L 310.840 169.531 307.008 169.531 C 300.578 169.531,295.463 168.098,293.164 165.651 C 292.050 164.465,291.003 155.859,291.973 155.859 C 292.108 155.859,292.891 156.202,293.712 156.621 C 296.919 158.258,304.800 159.755,310.247 159.762 L 312.487 159.766 313.449 157.867 L 314.411 155.968 310.038 155.702 C 295.232 154.802,291.679 152.647,291.828 144.653 C 291.904 140.585,291.852 140.635,294.582 142.018 C 302.999 146.283,323.085 146.279,332.910 142.010 C 333.527 141.742,333.594 142.000,333.594 144.635 L 333.594 147.556 335.180 147.810 C 337.588 148.195,337.500 148.745,337.500 133.358 L 337.500 119.105 336.571 118.176 C 332.298 113.903,314.572 111.079,303.257 112.869 M318.750 116.978 C 327.123 117.439,334.341 120.371,332.098 122.401 C 326.345 127.607,300.633 127.435,293.569 122.143 C 290.560 119.888,304.230 116.087,313.281 116.662 C 314.248 116.724,316.709 116.866,318.750 116.978 M294.296 127.180 C 303.151 131.234,322.748 131.024,332.910 126.765 C 333.700 126.435,333.947 133.003,333.218 134.922 C 330.650 141.675,300.638 143.136,294.052 136.829 C 292.667 135.503,290.797 126.172,291.916 126.172 C 292.013 126.172,293.084 126.626,294.296 127.180 M347.526 135.417 C 346.474 136.469,347.302 138.968,348.781 139.205 C 351.795 139.687,351.972 140.075,352.190 146.681 C 352.443 154.328,352.522 154.740,354.147 156.869 C 355.526 158.676,355.526 158.677,354.761 159.514 C 352.669 161.800,352.344 163.225,352.344 170.102 C 352.344 177.669,352.154 178.125,349.004 178.125 L 347.227 178.125 347.344 180.371 C 347.481 182.993,347.937 183.223,351.440 182.440 C 353.173 182.052,355.507 180.308,356.301 178.807 C 356.329 178.754,356.461 175.426,356.594 171.412 L 356.836 164.112 357.993 162.905 C 358.630 162.241,359.661 161.566,360.285 161.404 C 361.390 161.118,361.420 161.044,361.420 158.588 L 361.420 156.066 360.153 155.806 C 357.193 155.201,356.859 154.322,356.641 146.574 C 356.423 138.848,356.104 137.768,353.534 136.036 C 352.250 135.171,348.190 134.752,347.526 135.417 M48.307 211.198 C 48.164 211.341,48.047 217.581,48.047 225.065 L 48.047 238.672 50.579 238.672 L 53.111 238.672 53.215 229.590 L 53.320 220.508 56.869 226.953 C 62.053 236.368,61.907 236.388,67.992 225.430 L 70.898 220.196 71.094 229.532 C 71.201 234.666,71.421 238.823,71.582 238.770 C 71.743 238.716,72.844 238.672,74.028 238.672 L 76.182 238.672 76.079 224.902 L 75.977 211.133 73.300 211.133 L 70.623 211.133 66.464 218.645 C 64.176 222.777,62.208 226.161,62.090 226.165 C 61.973 226.169,59.984 222.744,57.672 218.555 L 53.468 210.938 51.018 210.938 C 49.670 210.938,48.451 211.055,48.307 211.198 M93.012 211.638 C 92.634 212.344,86.894 227.529,84.159 235.059 L 82.846 238.672 85.475 238.672 L 88.105 238.672 89.194 235.742 L 90.284 232.813 95.835 232.813 L 101.386 232.813 102.463 235.708 L 103.539 238.604 105.969 238.755 C 107.305 238.839,108.537 238.795,108.706 238.657 C 108.875 238.520,106.656 232.271,103.774 224.770 L 98.535 211.133 95.970 211.018 C 93.788 210.920,93.347 211.013,93.012 211.638 M115.137 211.163 C 114.976 211.325,114.844 217.566,114.844 225.030 L 114.844 238.602 117.221 238.735 C 120.190 238.900,119.922 239.437,119.922 233.333 L 119.922 228.125 121.981 228.125 L 124.039 228.125 127.243 233.496 L 130.446 238.867 133.192 238.737 C 136.556 238.579,136.590 239.015,132.732 232.777 C 130.879 229.781,129.714 227.530,129.972 227.444 C 136.124 225.394,136.814 215.864,131.069 212.311 C 129.161 211.131,116.102 210.190,115.137 211.163 M143.359 224.805 L 143.359 238.672 145.703 238.672 L 148.047 238.672 148.047 224.805 L 148.047 210.938 145.703 210.938 L 143.359 210.938 143.359 224.805 M164.665 211.302 C 164.180 212.086,154.688 237.622,154.688 238.141 C 154.688 238.533,155.340 238.672,157.175 238.672 L 159.662 238.672 160.781 235.742 L 161.899 232.813 167.428 232.813 L 172.956 232.813 174.100 235.645 L 175.244 238.477 177.889 238.593 C 180.285 238.698,180.512 238.643,180.305 238.007 C 180.179 237.621,177.824 231.416,175.071 224.219 L 170.067 211.133 167.489 211.018 C 166.028 210.953,164.804 211.076,164.665 211.302 M195.703 211.342 C 195.703 211.564,197.549 214.563,199.805 218.005 C 202.061 221.448,203.906 224.399,203.906 224.563 C 203.906 224.727,201.973 227.816,199.609 231.428 C 194.522 239.203,194.636 238.672,198.046 238.672 L 200.779 238.672 203.417 234.529 C 207.617 227.933,206.783 228.015,210.411 233.837 C 212.135 236.603,213.662 238.823,213.804 238.770 C 213.946 238.716,215.205 238.672,216.602 238.672 C 219.787 238.672,219.911 239.193,214.844 231.268 C 212.480 227.571,210.547 224.482,210.547 224.402 C 210.547 224.323,212.393 221.452,214.648 218.023 C 219.537 210.593,219.468 210.938,216.054 210.938 L 213.358 210.938 210.343 215.639 L 207.327 220.341 204.406 215.639 L 201.485 210.938 198.594 210.938 C 196.863 210.938,195.703 211.100,195.703 211.342 M225.781 224.786 L 225.781 238.672 228.325 238.672 L 230.869 238.672 230.767 224.902 L 230.664 211.133 228.223 211.017 L 225.781 210.900 225.781 224.786 M239.339 211.182 C 239.187 211.334,239.063 217.581,239.063 225.065 L 239.063 238.672 241.594 238.672 L 244.126 238.672 244.231 229.499 L 244.336 220.325 247.884 226.862 L 251.431 233.398 252.924 233.398 L 254.416 233.398 258.165 226.758 L 261.914 220.117 262.019 229.395 L 262.124 238.672 264.661 238.672 L 267.197 238.672 267.095 224.902 L 266.992 211.133 264.387 211.018 L 261.782 210.903 258.074 217.463 C 256.035 221.071,254.147 224.507,253.878 225.098 C 253.170 226.658,253.292 226.812,248.772 218.645 L 244.615 211.133 242.115 211.019 C 240.740 210.957,239.491 211.030,239.339 211.182 M275.391 224.805 L 275.391 238.672 284.375 238.672 L 293.359 238.672 293.359 236.523 L 293.359 234.375 286.914 234.375 L 280.469 234.375 280.469 230.664 L 280.469 226.953 285.938 226.953 L 291.406 226.953 291.406 224.609 L 291.406 222.266 285.938 222.266 L 280.469 222.266 280.469 218.945 L 280.469 215.625 286.692 215.625 C 293.700 215.625,293.347 215.804,293.025 212.402 L 292.887 210.938 284.139 210.938 L 275.391 210.938 275.391 224.805 M301.042 211.198 C 300.898 211.341,300.781 217.581,300.781 225.065 L 300.781 238.672 303.313 238.672 L 305.845 238.672 305.950 229.257 L 306.055 219.843 312.710 229.160 L 319.365 238.477 321.792 238.593 L 324.219 238.709 324.219 224.805 L 324.219 210.900 321.777 211.017 L 319.336 211.133 319.336 220.410 C 319.336 225.513,319.248 229.683,319.141 229.678 C 318.943 229.667,317.892 228.243,309.849 217.090 L 305.412 210.938 303.357 210.938 C 302.227 210.938,301.185 211.055,301.042 211.198 M340.496 211.221 C 339.856 212.256,330.438 237.993,330.562 238.367 C 330.761 238.963,335.240 238.772,335.636 238.151 C 335.795 237.900,336.294 236.597,336.745 235.254 L 337.564 232.813 343.156 232.813 L 348.749 232.813 349.806 235.711 L 350.863 238.609 353.399 238.738 C 354.795 238.809,356.010 238.746,356.101 238.599 C 356.192 238.451,353.930 232.211,351.075 224.732 L 345.885 211.133 343.289 211.018 C 341.861 210.955,340.604 211.046,340.496 211.221 M128.472 216.625 C 132.205 219.766,129.725 223.828,124.075 223.828 C 119.767 223.828,119.922 223.990,119.922 219.489 L 119.922 215.625 123.603 215.625 C 126.982 215.625,127.381 215.707,128.472 216.625 M99.491 227.983 C 99.397 228.077,97.646 228.104,95.601 228.042 L 91.883 227.930 93.610 223.242 C 94.560 220.664,95.431 218.292,95.545 217.971 C 95.659 217.649,96.632 219.732,97.707 222.599 C 98.783 225.466,99.585 227.889,99.491 227.983 M169.851 224.121 L 171.425 228.125 167.395 228.125 L 163.366 228.125 165.124 223.340 C 166.091 220.708,166.970 218.291,167.077 217.969 C 167.203 217.590,167.449 217.866,167.774 218.750 C 168.051 219.502,168.986 221.919,169.851 224.121 M345.223 222.949 L 347.173 228.125 343.158 228.125 L 339.143 228.125 340.507 224.512 C 341.257 222.524,342.138 220.142,342.464 219.217 C 342.790 218.292,343.105 217.589,343.165 217.655 C 343.225 217.720,344.151 220.103,345.223 222.949 M52.701 259.751 L 50.520 265.625 51.580 265.625 C 52.389 265.625,52.754 265.348,53.125 264.453 C 53.591 263.327,53.706 263.281,56.064 263.281 C 58.439 263.281,58.530 263.319,58.926 264.453 C 59.236 265.342,59.575 265.625,60.331 265.625 C 61.617 265.625,61.667 265.907,59.241 259.561 C 56.207 251.624,55.714 251.639,52.701 259.751 M65.223 254.004 C 65.217 254.058,65.173 256.694,65.126 259.863 L 65.039 265.625 66.149 265.625 L 67.259 265.625 67.125 261.523 C 66.964 256.553,66.758 256.552,70.224 261.538 C 72.535 264.861,73.247 265.625,74.033 265.625 L 75.000 265.625 75.000 259.766 L 75.000 253.906 74.037 253.906 C 73.084 253.906,73.073 253.948,72.963 257.856 L 72.852 261.806 69.990 257.856 C 67.483 254.395,65.371 252.688,65.223 254.004 M80.957 259.493 C 78.573 266.019,78.645 265.625,79.835 265.625 C 80.500 265.625,80.903 265.291,81.250 264.453 C 81.716 263.327,81.831 263.281,84.189 263.281 C 86.564 263.281,86.655 263.319,87.051 264.453 C 87.361 265.342,87.700 265.625,88.456 265.625 C 89.714 265.625,89.783 266.006,87.361 259.570 C 84.382 251.653,83.823 251.647,80.957 259.493 M92.969 259.740 L 92.969 265.625 96.875 265.625 C 100.521 265.625,100.781 265.573,100.781 264.844 C 100.781 264.137,100.521 264.063,98.059 264.063 L 95.336 264.063 95.227 259.082 L 95.117 254.102 94.043 253.978 L 92.969 253.854 92.969 259.740 M103.906 259.766 L 103.906 265.625 105.078 265.625 L 106.250 265.625 106.250 259.766 L 106.250 253.906 105.078 253.906 L 103.906 253.906 103.906 259.766 M111.115 254.865 C 109.180 256.800,109.978 258.879,113.296 260.554 C 115.159 261.495,115.625 261.916,115.625 262.659 C 115.625 264.206,113.625 264.557,112.017 263.293 C 111.064 262.543,111.021 262.542,110.382 263.248 C 109.171 264.585,112.913 266.537,115.298 265.813 C 119.124 264.650,118.840 260.666,114.807 258.931 C 112.517 257.946,111.817 256.989,112.724 256.082 C 113.513 255.293,114.435 255.305,115.595 256.117 C 116.467 256.728,116.553 256.722,117.067 256.019 C 118.522 254.034,113.014 252.966,111.115 254.865 M121.484 254.883 C 121.484 255.762,121.641 255.859,123.047 255.859 L 124.609 255.859 124.609 260.742 L 124.609 265.625 125.781 265.625 L 126.953 265.625 126.953 260.742 L 126.953 255.859 128.516 255.859 C 129.922 255.859,130.078 255.762,130.078 254.883 L 130.078 253.906 125.781 253.906 L 121.484 253.906 121.484 254.883 M133.691 259.493 C 131.298 266.047,131.370 265.625,132.638 265.625 C 133.394 265.625,133.733 265.342,134.043 264.453 C 134.439 263.318,134.529 263.281,136.914 263.281 C 139.299 263.281,139.390 263.318,139.785 264.453 C 140.095 265.342,140.434 265.625,141.191 265.625 C 142.475 265.625,142.529 265.922,140.089 259.568 C 137.063 251.684,136.546 251.678,133.691 259.493 M150.391 254.123 C 150.391 254.242,151.270 255.710,152.344 257.385 C 154.186 260.257,154.297 260.576,154.297 263.027 C 154.297 265.538,154.330 265.625,155.273 265.625 C 156.216 265.625,156.250 265.535,156.250 263.068 C 156.250 260.662,156.361 260.346,158.134 257.697 C 160.835 253.663,160.752 253.906,159.426 253.906 C 158.417 253.906,158.065 254.227,156.810 256.293 L 155.360 258.680 153.842 256.293 C 152.509 254.195,150.391 252.864,150.391 254.123 M170.703 259.766 L 170.703 265.625 173.730 265.624 C 178.481 265.621,180.560 263.809,180.528 259.698 C 180.498 255.780,178.216 253.906,173.476 253.906 L 170.703 253.906 170.703 259.766 M184.375 259.766 L 184.375 265.625 188.440 265.625 C 192.284 265.625,192.494 265.583,192.305 264.860 C 192.134 264.205,191.704 264.079,189.314 263.981 L 186.523 263.867 186.402 262.402 L 186.281 260.938 188.844 260.938 C 191.303 260.938,191.406 260.899,191.406 259.980 C 191.406 259.077,191.264 259.015,188.965 258.905 L 186.523 258.789 186.402 257.324 L 186.281 255.859 189.234 255.859 C 192.124 255.859,192.188 255.838,192.188 254.883 L 192.188 253.906 188.281 253.906 L 184.375 253.906 184.375 259.766 M196.943 254.810 C 194.983 256.897,196.076 259.291,199.707 260.869 C 200.965 261.415,201.563 261.908,201.563 262.400 C 201.563 264.114,199.304 264.646,197.845 263.275 C 197.022 262.502,196.995 262.501,196.335 263.231 C 195.101 264.594,198.227 266.362,200.962 265.849 C 204.927 265.105,204.861 260.777,200.858 259.055 C 199.808 258.603,198.726 257.965,198.454 257.637 C 197.234 256.167,199.621 254.875,201.402 256.042 C 202.354 256.665,202.438 256.662,202.950 255.987 C 204.411 254.061,198.698 252.942,196.943 254.810 M211.171 254.236 C 210.901 254.672,207.031 265.135,207.031 265.428 C 207.031 266.299,209.080 265.468,209.434 264.453 C 209.829 263.319,209.921 263.281,212.296 263.281 C 214.653 263.281,214.768 263.327,215.234 264.453 C 215.608 265.355,215.968 265.625,216.799 265.625 L 217.878 265.625 215.654 259.863 C 213.431 254.103,212.204 252.564,211.171 254.236 M221.094 259.766 L 221.094 265.625 222.266 265.625 C 223.426 265.625,223.438 265.603,223.438 263.477 C 223.438 261.592,223.533 261.328,224.215 261.328 C 224.751 261.328,225.371 261.998,226.206 263.477 C 227.240 265.309,227.585 265.625,228.553 265.625 C 229.948 265.625,229.949 265.671,228.502 263.319 L 227.316 261.392 228.290 260.417 C 231.455 257.253,229.171 253.906,223.848 253.906 L 221.094 253.906 221.094 259.766 M233.594 259.766 L 233.594 265.625 234.570 265.625 C 235.494 265.625,235.547 265.508,235.547 263.477 C 235.547 261.504,235.620 261.328,236.432 261.328 C 237.089 261.328,237.649 261.882,238.603 263.477 C 239.698 265.309,240.058 265.625,241.045 265.625 L 242.203 265.625 241.445 264.160 C 241.028 263.354,240.432 262.357,240.122 261.943 C 239.610 261.260,239.662 261.102,240.677 260.248 C 243.835 257.590,241.404 253.906,236.493 253.906 L 233.594 253.906 233.594 259.766 M248.007 254.793 C 243.054 258.102,245.405 265.820,251.367 265.820 C 256.032 265.820,258.820 260.604,256.319 256.557 C 254.685 253.913,250.617 253.049,248.007 254.793 M261.328 259.766 L 261.328 265.625 265.039 265.625 C 268.490 265.625,268.750 265.570,268.750 264.844 C 268.750 264.137,268.490 264.063,266.016 264.063 L 263.281 264.063 263.281 258.984 L 263.281 253.906 262.305 253.906 L 261.328 253.906 261.328 259.766 M272.266 259.766 L 272.266 265.625 275.977 265.625 C 279.398 265.625,279.688 265.565,279.688 264.862 C 279.688 264.191,279.367 264.084,277.051 263.983 L 274.414 263.867 274.305 258.887 L 274.195 253.906 273.231 253.906 L 272.266 253.906 272.266 259.766 M286.374 254.785 C 286.195 255.269,285.653 256.719,285.168 258.008 C 284.684 259.297,283.878 261.538,283.378 262.988 L 282.468 265.625 283.586 265.625 C 284.510 265.625,284.748 265.422,284.961 264.453 C 285.216 263.290,285.239 263.281,287.891 263.281 C 290.542 263.281,290.565 263.290,290.820 264.453 C 291.037 265.438,291.265 265.625,292.251 265.625 C 292.896 265.625,293.366 265.480,293.294 265.302 C 293.223 265.124,292.212 262.487,291.048 259.442 C 289.008 254.107,288.891 253.906,287.815 253.906 C 287.015 253.906,286.607 254.155,286.374 254.785 M296.875 259.766 L 296.875 265.625 299.902 265.624 C 304.630 265.621,306.731 263.803,306.731 259.713 C 306.731 255.784,304.461 253.908,299.707 253.907 L 296.875 253.906 296.875 259.766 M314.063 254.180 C 311.611 255.069,309.820 258.634,310.522 261.230 C 312.399 268.174,322.270 267.068,322.264 259.915 C 322.261 255.664,318.064 252.730,314.063 254.180 M326.563 259.766 L 326.563 265.625 327.539 265.625 C 328.462 265.625,328.516 265.508,328.516 263.477 C 328.516 260.201,331.114 261.425,332.522 265.363 C 332.586 265.542,333.197 265.630,333.880 265.559 L 335.122 265.430 333.833 263.347 L 332.545 261.265 333.704 260.106 C 336.526 257.284,334.219 253.906,329.470 253.906 L 326.563 253.906 326.563 259.766 M342.409 254.254 C 342.173 254.637,338.281 265.203,338.281 265.463 C 338.281 266.309,340.338 265.444,340.684 264.453 C 341.081 263.314,341.163 263.281,343.613 263.281 C 346.063 263.281,346.146 263.314,346.543 264.453 C 346.870 265.390,347.177 265.625,348.079 265.625 L 349.207 265.625 348.392 263.574 C 347.944 262.446,346.941 259.810,346.164 257.715 C 344.766 253.946,343.386 252.674,342.409 254.254 M253.750 256.797 C 257.280 260.326,252.979 266.323,249.104 263.275 C 246.794 261.458,246.929 257.702,249.357 256.221 C 251.135 255.137,252.234 255.281,253.750 256.797 M318.195 256.205 C 322.635 258.913,319.094 265.877,314.489 263.495 C 311.685 262.045,312.043 257.064,315.039 255.838 C 316.257 255.339,316.898 255.414,318.195 256.205 M177.504 257.061 C 180.026 260.058,177.890 264.063,173.770 264.063 L 172.656 264.063 172.656 259.961 L 172.656 255.859 174.575 255.859 C 176.237 255.859,176.628 256.020,177.504 257.061 M226.934 256.422 C 228.070 257.791,227.282 259.171,225.293 259.299 L 223.438 259.418 223.438 257.639 L 223.438 255.859 224.952 255.859 C 225.794 255.859,226.674 256.109,226.934 256.422 M239.375 256.328 C 240.756 257.709,239.581 259.375,237.227 259.375 L 235.547 259.375 235.547 257.617 L 235.547 255.859 237.227 255.859 C 238.150 255.859,239.117 256.070,239.375 256.328 M303.676 257.061 C 306.198 260.058,304.062 264.063,299.942 264.063 L 298.828 264.063 298.828 259.961 L 298.828 255.859 300.747 255.859 C 302.409 255.859,302.800 256.020,303.676 257.061 M332.432 256.862 C 333.061 258.518,332.321 259.375,330.260 259.375 L 328.516 259.375 328.516 257.617 L 328.516 255.859 330.283 255.859 C 331.821 255.859,332.100 255.990,332.432 256.862 M56.758 258.301 C 57.078 259.214,57.465 260.269,57.618 260.645 C 57.859 261.237,57.656 261.328,56.096 261.328 C 55.107 261.328,54.297 261.256,54.297 261.168 C 54.297 260.889,55.963 256.641,56.072 256.641 C 56.130 256.641,56.438 257.388,56.758 258.301 M84.294 261.255 C 82.257 261.414,82.262 261.426,83.270 258.791 L 84.134 256.532 84.995 258.832 L 85.856 261.133 84.294 261.255 M137.617 258.301 C 137.937 259.214,138.324 260.269,138.477 260.645 C 138.719 261.238,138.513 261.328,136.914 261.328 C 135.315 261.328,135.109 261.238,135.351 260.645 C 135.504 260.269,135.891 259.214,136.211 258.301 C 136.531 257.388,136.847 256.641,136.914 256.641 C 136.981 256.641,137.298 257.388,137.617 258.301 M213.008 258.301 C 213.328 259.214,213.715 260.269,213.868 260.645 C 214.109 261.236,213.907 261.328,212.372 261.328 L 210.598 261.328 211.390 258.984 C 212.333 256.192,212.277 256.215,213.008 258.301 M288.483 258.083 C 289.774 261.172,289.741 261.328,287.795 261.328 L 286.053 261.328 286.874 258.984 C 287.844 256.214,287.729 256.279,288.483 258.083 M345.100 260.449 C 345.348 261.270,345.248 261.328,343.607 261.328 L 341.848 261.328 342.674 258.887 L 343.500 256.445 344.168 258.008 C 344.535 258.867,344.955 259.966,345.100 260.449 M131.641 282.031 L 131.641 287.891 134.668 287.889 C 139.158 287.887,141.021 286.458,141.613 282.561 C 142.189 278.763,139.294 276.174,134.473 276.172 L 131.641 276.172 131.641 282.031 M145.703 282.031 L 145.703 287.891 149.609 287.891 L 153.516 287.891 153.516 286.914 C 153.516 285.959,153.452 285.938,150.562 285.938 L 147.609 285.938 147.730 284.473 L 147.852 283.008 150.195 282.967 C 153.878 282.904,153.792 281.114,150.098 280.938 L 147.656 280.822 147.656 279.474 L 147.656 278.125 150.586 278.125 C 153.451 278.125,153.516 278.103,153.516 277.148 L 153.516 276.172 149.609 276.172 L 145.703 276.172 145.703 282.031 M164.912 277.076 C 162.952 279.162,164.044 281.557,167.676 283.134 C 168.933 283.681,169.531 284.174,169.531 284.666 C 169.531 286.373,167.575 286.857,165.923 285.558 C 164.949 284.792,164.941 284.792,164.242 285.564 C 163.115 286.809,166.362 288.665,168.673 288.097 C 172.863 287.067,172.968 283.315,168.862 281.330 C 166.314 280.098,165.621 279.267,166.379 278.353 C 167.040 277.556,168.333 277.564,169.487 278.372 C 170.415 279.023,171.071 278.667,171.088 277.504 C 171.108 276.036,166.208 275.696,164.912 277.076 M177.805 276.965 C 176.086 278.013,174.849 280.760,175.189 282.774 C 176.405 289.973,186.367 289.783,186.990 282.549 C 187.413 277.644,182.045 274.380,177.805 276.965 M191.016 282.031 L 191.016 287.891 191.992 287.891 C 192.935 287.891,192.969 287.801,192.969 285.324 L 192.969 282.757 195.380 282.856 C 197.611 282.947,197.795 282.890,197.854 282.102 C 197.912 281.309,197.744 281.250,195.443 281.250 L 192.969 281.250 192.969 279.688 L 192.969 278.125 195.703 278.125 C 198.359 278.125,198.438 278.097,198.438 277.148 C 198.438 276.175,198.424 276.172,194.727 276.172 L 191.016 276.172 191.016 282.031 M201.563 277.148 C 201.563 278.027,201.719 278.125,203.125 278.125 L 204.688 278.125 204.688 283.008 L 204.688 287.891 205.664 287.891 L 206.641 287.891 206.641 283.008 L 206.641 278.125 208.398 278.125 C 210.013 278.125,210.156 278.045,210.156 277.148 L 210.156 276.172 205.859 276.172 L 201.563 276.172 201.563 277.148 M213.365 276.660 C 213.458 276.929,214.300 279.565,215.236 282.520 C 217.599 289.970,218.490 289.890,220.725 282.031 C 221.505 279.289,221.655 279.403,223.026 283.779 C 224.947 289.916,225.558 289.735,227.917 282.335 C 230.004 275.788,229.969 276.087,228.630 276.244 C 227.660 276.357,227.490 276.654,226.552 279.883 C 225.990 281.816,225.436 283.662,225.320 283.984 C 225.205 284.307,224.534 282.769,223.831 280.566 C 222.018 274.893,221.042 274.830,219.371 280.278 C 217.971 284.842,218.017 284.845,216.640 280.078 C 215.539 276.263,215.485 276.172,214.355 276.172 C 213.600 276.172,213.256 276.342,213.365 276.660 M235.424 276.445 C 235.200 276.808,231.250 287.488,231.250 287.732 C 231.250 288.568,233.340 287.709,233.713 286.719 C 234.141 285.587,234.240 285.547,236.629 285.547 C 239.027 285.547,239.116 285.583,239.512 286.719 C 239.928 287.913,241.826 288.487,241.773 287.402 C 241.580 283.415,236.517 274.677,235.424 276.445 M245.703 282.031 L 245.703 287.891 246.680 287.891 C 247.604 287.891,247.656 287.775,247.656 285.715 C 247.656 282.771,248.821 282.818,250.571 285.833 C 251.619 287.637,251.908 287.878,253.039 287.884 L 254.321 287.891 252.927 285.712 L 251.534 283.534 252.495 282.778 C 255.858 280.132,253.321 276.172,248.262 276.172 L 245.703 276.172 245.703 282.031 M257.813 282.031 L 257.813 287.891 261.719 287.891 L 265.625 287.891 265.625 286.914 C 265.625 285.959,265.561 285.938,262.672 285.938 L 259.718 285.938 259.840 284.473 L 259.961 283.008 262.305 283.002 C 264.566 282.996,264.653 282.958,264.772 281.927 C 264.896 280.860,264.895 280.859,262.331 280.859 L 259.766 280.859 259.766 279.492 L 259.766 278.125 262.695 278.125 C 265.560 278.125,265.625 278.103,265.625 277.148 L 265.625 276.172 261.719 276.172 L 257.813 276.172 257.813 282.031 M182.820 278.324 C 185.916 279.925,185.434 285.129,182.102 286.085 C 178.584 287.094,175.836 282.491,178.179 279.512 C 179.558 277.759,181.009 277.388,182.820 278.324 M137.924 278.626 C 141.098 281.062,139.532 285.938,135.576 285.938 L 133.616 285.938 133.702 282.032 L 133.789 278.127 135.547 278.138 C 136.514 278.145,137.584 278.364,137.924 278.626 M251.152 278.687 C 252.288 280.056,251.501 281.437,249.512 281.564 L 247.656 281.683 247.656 279.904 L 247.656 278.125 249.171 278.125 C 250.012 278.125,250.893 278.375,251.152 278.687 M237.643 281.417 C 237.994 282.476,238.281 283.399,238.281 283.468 C 238.281 283.537,237.502 283.594,236.550 283.594 L 234.819 283.594 235.667 281.265 C 236.612 278.669,236.736 278.678,237.643 281.417 " stroke="none" fill="#062144" fill-rule="evenodd"></path><path id="path1" d="M0.000 200.000 L 0.000 400.000 200.000 400.000 L 400.000 400.000 400.000 200.000 L 400.000 0.000 200.000 0.000 L 0.000 0.000 0.000 200.000 M138.754 108.965 C 139.287 109.384,142.158 114.086,145.135 119.414 C 159.526 145.174,162.127 149.783,162.459 150.116 C 162.918 150.575,162.125 151.917,174.764 129.297 C 180.706 118.662,186.012 109.565,186.556 109.082 C 187.799 107.976,201.124 107.706,202.562 108.758 C 203.619 109.530,203.972 185.769,202.926 187.365 C 202.095 188.634,189.274 188.812,188.149 187.570 C 187.567 186.927,187.496 184.389,187.405 161.127 L 187.305 135.395 176.760 154.065 C 165.403 174.173,165.654 173.828,162.377 173.828 C 159.628 173.828,159.287 173.339,148.398 153.735 L 138.086 135.170 137.891 160.976 C 137.702 185.951,137.671 186.800,136.937 187.336 C 135.504 188.384,123.251 188.118,122.483 187.022 C 121.409 185.488,121.576 110.065,122.656 108.984 C 123.836 107.804,137.258 107.788,138.754 108.965 M227.297 108.697 C 227.877 108.998,231.185 113.992,236.086 121.964 C 240.409 128.996,244.033 134.751,244.141 134.754 C 244.248 134.757,245.113 133.486,246.064 131.930 C 253.828 119.217,259.622 110.178,260.584 109.277 L 261.731 108.203 268.873 108.203 C 279.046 108.203,278.963 107.074,269.849 121.428 C 265.942 127.582,260.668 135.925,258.130 139.968 L 253.515 147.319 254.622 148.952 C 260.085 157.010,277.734 185.631,277.734 186.431 C 277.734 187.826,277.352 187.891,269.070 187.891 L 261.642 187.891 260.606 186.760 C 260.036 186.138,256.055 179.812,251.758 172.703 C 247.461 165.594,243.857 159.783,243.750 159.790 C 243.643 159.797,239.775 165.882,235.156 173.312 C 230.537 180.742,226.387 187.066,225.934 187.365 C 225.287 187.792,223.489 187.885,217.536 187.802 L 209.961 187.695 209.840 186.653 C 209.730 185.696,214.457 178.037,233.649 148.072 C 234.288 147.075,234.239 146.987,222.818 128.711 C 211.374 110.397,210.912 109.557,211.797 108.672 C 212.461 108.008,226.011 108.030,227.297 108.697 M90.896 109.179 C 95.261 112.236,92.612 122.258,85.869 128.199 C 76.874 136.124,75.977 137.411,75.977 142.383 C 75.977 145.916,76.916 148.126,79.820 151.425 C 81.616 153.465,81.503 153.864,79.432 152.793 C 76.265 151.154,71.638 145.270,70.660 141.637 C 69.625 137.791,69.879 137.392,79.271 128.125 C 89.610 117.924,91.277 114.833,89.329 109.473 C 88.946 108.418,89.627 108.290,90.896 109.179 M319.531 112.508 C 325.231 113.006,329.490 114.070,333.192 115.923 C 338.094 118.375,337.892 117.633,337.885 133.163 C 337.879 149.791,338.416 148.160,333.052 147.829 C 318.835 146.954,308.520 158.221,311.371 171.513 C 311.950 174.215,311.748 174.316,306.250 174.066 C 296.602 173.627,288.539 169.762,287.701 165.172 C 287.570 164.454,287.515 153.901,287.579 141.721 L 287.695 119.574 289.063 118.161 C 293.430 113.646,305.952 111.323,319.531 112.508 M100.000 126.341 C 100.000 126.433,98.600 127.342,96.890 128.359 C 86.803 134.360,85.036 138.057,89.167 144.515 C 92.560 149.818,91.805 153.100,86.551 155.887 C 84.521 156.965,83.831 156.689,85.307 155.391 C 86.904 153.986,86.978 152.512,85.579 150.000 C 80.961 141.711,81.060 138.390,86.063 133.715 C 89.961 130.072,100.000 124.760,100.000 126.341 M351.758 135.195 C 355.691 136.264,356.641 138.385,356.641 146.094 C 356.641 153.728,357.512 155.859,360.634 155.859 C 361.717 155.859,361.719 155.865,361.719 158.594 C 361.719 160.937,361.621 161.328,361.035 161.330 C 357.754 161.337,356.642 163.972,356.634 171.765 C 356.625 180.316,355.197 182.516,349.414 182.884 L 347.461 183.008 347.345 180.566 L 347.228 178.125 348.723 178.125 C 351.725 178.125,351.843 177.842,352.025 170.224 C 352.199 162.980,352.440 161.988,354.587 159.691 L 355.570 158.641 354.193 157.032 C 352.342 154.870,351.953 153.015,351.953 146.359 C 351.953 140.282,351.900 140.115,349.803 139.644 C 347.202 139.059,347.266 139.122,347.266 137.110 C 347.266 135.451,347.377 135.189,348.145 135.041 C 349.698 134.742,350.166 134.762,351.758 135.195 M333.238 153.090 C 333.640 156.103,335.995 157.137,338.210 155.273 C 339.680 154.036,339.745 154.044,341.504 155.680 C 343.157 157.217,343.292 157.790,342.226 158.754 C 340.340 160.461,341.235 162.981,344.016 163.789 L 345.898 164.336 346.017 166.605 C 346.148 169.086,345.857 169.515,344.043 169.525 C 341.523 169.539,340.580 172.538,342.411 174.715 L 343.417 175.909 341.671 177.654 L 339.926 179.399 338.579 178.372 C 336.016 176.417,333.638 177.272,333.300 180.269 L 333.098 182.065 330.514 181.950 L 327.930 181.836 327.810 180.182 C 327.605 177.349,325.162 176.471,322.647 178.327 L 321.313 179.311 319.580 177.578 L 317.846 175.844 318.884 174.611 C 320.861 172.261,319.606 169.531,316.549 169.531 C 315.241 169.531,315.234 169.522,315.169 167.578 C 315.133 166.504,315.090 165.323,315.072 164.954 C 315.048 164.459,315.501 164.196,316.797 163.953 C 319.914 163.369,320.688 161.499,318.889 158.903 C 317.735 157.237,317.908 156.793,320.406 155.013 L 321.475 154.250 322.786 155.250 C 325.085 157.003,327.577 156.000,327.809 153.228 C 328.045 150.407,332.863 150.285,333.238 153.090 M109.844 154.955 C 115.442 158.225,113.309 164.610,105.204 168.844 C 100.704 171.194,97.107 171.697,101.182 169.406 C 109.961 164.472,111.357 156.188,103.533 155.464 L 101.367 155.263 102.539 154.575 C 104.065 153.678,108.010 153.884,109.844 154.955 M72.656 155.004 C 72.656 155.179,71.816 155.537,70.788 155.800 C 68.363 156.421,64.844 158.057,64.844 158.562 C 64.844 160.194,82.895 160.529,92.426 159.073 C 99.759 157.952,100.191 159.112,93.064 160.788 C 87.940 161.994,69.982 162.846,64.648 162.137 C 55.496 160.920,56.510 157.081,66.406 155.481 C 68.018 155.221,69.600 154.956,69.922 154.893 C 71.192 154.644,72.656 154.704,72.656 155.004 M328.516 160.984 C 324.353 162.635,323.143 167.568,326.132 170.707 C 329.469 174.211,334.954 173.096,336.487 168.602 C 338.037 164.061,332.968 159.218,328.516 160.984 M69.141 165.547 C 69.141 165.719,68.957 166.043,68.733 166.267 C 66.835 168.165,78.986 169.061,88.281 167.709 C 92.844 167.045,95.703 167.471,95.703 168.814 C 95.703 170.988,78.114 172.894,71.202 171.470 C 65.440 170.282,62.169 166.923,65.625 165.745 C 67.214 165.203,69.141 165.095,69.141 165.547 M69.998 174.918 C 69.756 176.597,80.391 177.591,85.938 176.407 C 90.013 175.537,91.358 175.606,93.073 176.772 C 94.940 178.040,94.907 178.383,92.871 178.937 C 81.128 182.128,64.307 179.855,67.057 175.449 C 68.030 173.891,70.203 173.499,69.998 174.918 M65.418 179.669 C 65.649 180.042,64.639 180.360,60.456 181.229 C 55.457 182.267,58.188 183.976,67.383 185.563 C 78.244 187.437,104.960 184.758,107.192 181.571 C 107.499 181.133,107.940 180.892,108.172 181.035 C 108.945 181.513,108.618 183.127,107.585 183.940 C 98.673 190.950,44.100 189.334,51.883 182.290 C 53.826 180.532,64.656 178.435,65.418 179.669 M112.500 185.007 C 112.500 187.740,106.078 190.547,96.317 192.078 C 85.457 193.782,62.891 192.245,62.891 189.802 C 62.891 189.581,63.198 189.490,63.574 189.599 C 75.192 192.967,106.316 189.810,111.504 184.738 C 112.068 184.186,112.500 184.303,112.500 185.007 M57.880 218.689 L 62.051 226.246 63.169 224.289 C 63.784 223.212,65.687 219.772,67.397 216.644 L 70.508 210.957 73.345 210.947 L 76.182 210.938 76.079 224.902 L 75.977 238.867 73.633 238.867 L 71.289 238.867 71.183 229.492 L 71.076 220.117 67.327 226.855 L 63.577 233.594 61.964 233.591 L 60.352 233.589 56.836 227.125 L 53.320 220.662 53.125 229.764 L 52.930 238.867 50.586 238.867 L 48.242 238.867 48.140 224.885 L 48.037 210.903 50.873 211.018 L 53.709 211.133 57.880 218.689 M99.025 212.207 C 100.850 216.237,108.983 238.112,108.817 238.545 C 108.680 238.901,107.830 239.063,106.100 239.063 L 103.582 239.063 102.430 236.035 L 101.278 233.008 95.854 232.903 L 90.430 232.797 89.258 235.832 L 88.086 238.867 85.783 238.986 C 82.372 239.162,82.297 239.664,87.919 224.667 L 93.065 210.938 95.758 210.938 C 98.417 210.938,98.457 210.953,99.025 212.207 M129.327 211.383 C 136.238 213.454,137.272 224.297,130.813 226.972 C 129.411 227.553,129.147 226.822,132.974 232.965 C 136.734 239.000,136.727 239.173,132.753 238.984 L 130.281 238.867 127.152 233.508 L 124.023 228.149 121.973 228.137 L 119.922 228.125 119.922 233.612 L 119.922 239.100 117.480 238.983 L 115.039 238.867 114.936 224.902 L 114.834 210.938 121.336 210.938 C 125.079 210.938,128.471 211.127,129.327 211.383 M148.242 225.000 L 148.242 238.867 145.703 238.867 L 143.164 238.867 143.061 224.884 L 142.959 210.902 145.601 211.017 L 148.242 211.133 148.242 225.000 M172.630 217.480 C 173.983 221.079,176.305 227.182,177.788 231.043 C 180.930 239.216,180.931 239.140,177.644 238.984 L 175.199 238.867 174.054 235.830 L 172.910 232.792 167.429 232.900 L 161.949 233.008 160.955 235.555 C 159.566 239.114,159.624 239.063,157.050 239.063 C 153.880 239.063,153.785 239.629,159.486 224.492 L 164.590 210.938 167.380 210.938 L 170.169 210.938 172.630 217.480 M204.453 215.525 C 205.978 217.940,207.314 219.911,207.422 219.904 C 207.529 219.897,208.848 217.883,210.352 215.427 L 213.086 210.961 215.918 210.949 C 219.538 210.934,219.579 210.680,214.786 217.983 C 212.606 221.305,210.819 224.199,210.816 224.414 C 210.813 224.629,212.703 227.750,215.016 231.350 C 219.868 238.901,219.893 239.069,216.126 239.047 L 213.477 239.031 211.857 236.410 C 210.967 234.968,209.546 232.686,208.700 231.339 L 207.161 228.888 204.493 233.097 C 200.716 239.054,200.707 239.063,197.967 239.063 C 194.635 239.063,194.694 238.778,199.595 231.238 L 203.945 224.544 199.629 217.929 C 197.255 214.291,195.313 211.223,195.313 211.110 C 195.313 210.998,196.745 210.957,198.495 211.019 L 201.678 211.133 204.453 215.525 M230.767 224.902 L 230.664 238.867 228.357 238.986 C 225.245 239.147,225.403 239.906,225.397 224.772 C 225.390 209.713,225.125 210.938,228.390 210.938 L 230.869 210.938 230.767 224.902 M245.725 212.923 C 246.303 213.907,248.187 217.302,249.912 220.466 L 253.048 226.220 254.980 222.778 C 256.043 220.885,257.950 217.452,259.218 215.149 L 261.523 210.962 264.360 210.950 L 267.197 210.938 267.095 224.902 L 266.992 238.867 264.648 238.867 L 262.305 238.867 262.109 229.582 L 261.914 220.296 258.203 226.949 L 254.492 233.601 252.930 233.500 L 251.367 233.398 247.852 227.010 L 244.336 220.623 244.141 229.745 L 243.945 238.867 241.602 238.867 L 239.258 238.867 239.155 224.885 L 239.053 210.903 241.864 211.018 L 244.675 211.133 245.725 212.923 M293.164 213.281 L 293.164 215.430 286.816 215.537 L 280.469 215.644 280.469 218.944 L 280.469 222.244 286.035 222.353 L 291.602 222.461 291.723 224.371 C 291.890 227.001,291.792 227.044,285.779 226.976 L 280.469 226.916 280.469 230.450 C 280.469 232.394,280.513 233.985,280.566 233.987 C 293.744 234.319,294.030 234.385,293.524 237.001 L 293.164 238.867 284.277 238.972 L 275.391 239.077 275.391 225.000 L 275.391 210.923 284.277 211.028 L 293.164 211.133 293.164 213.281 M310.469 217.773 C 313.122 221.426,316.158 225.628,317.216 227.112 L 319.141 229.810 319.141 220.374 L 319.141 210.938 321.680 210.938 L 324.219 210.938 324.219 225.000 L 324.219 239.063 321.942 239.063 L 319.665 239.063 312.860 229.527 L 306.055 219.991 305.950 229.527 L 305.846 239.063 303.313 239.063 L 300.781 239.063 300.781 224.981 L 300.781 210.900 303.214 211.017 L 305.647 211.133 310.469 217.773 M351.101 224.512 C 357.168 240.473,356.910 239.063,353.759 239.063 C 350.872 239.063,350.835 239.030,349.571 235.449 L 348.640 232.813 343.166 232.813 L 337.693 232.813 336.776 235.449 C 336.272 236.899,335.680 238.306,335.460 238.574 C 335.005 239.131,330.634 239.256,330.304 238.722 C 330.189 238.535,332.413 232.206,335.248 224.659 L 340.403 210.938 343.172 210.938 L 345.942 210.938 351.101 224.512 M120.182 215.885 C 120.039 216.029,119.922 217.786,119.922 219.792 L 119.922 223.438 123.963 223.438 C 128.416 223.438,128.865 223.230,129.718 220.783 C 130.254 219.247,129.243 216.872,127.734 216.122 C 126.721 215.618,120.640 215.428,120.182 215.885 M95.549 218.359 C 95.429 218.682,94.553 221.011,93.603 223.535 L 91.875 228.125 95.742 228.125 C 97.869 228.125,99.608 228.081,99.606 228.027 C 99.572 227.157,95.704 217.940,95.549 218.359 M165.501 222.805 C 164.495 225.509,163.672 227.812,163.672 227.923 C 163.672 228.034,165.342 228.125,167.383 228.125 C 169.424 228.125,171.093 227.993,171.093 227.832 C 171.092 227.671,170.245 225.368,169.211 222.713 L 167.330 217.888 165.501 222.805 M341.278 222.772 C 340.275 225.498,339.453 227.818,339.453 227.927 C 339.453 228.036,341.183 228.125,343.297 228.125 L 347.142 228.125 345.431 223.730 C 344.490 221.313,343.581 218.994,343.412 218.576 C 343.175 217.992,342.680 218.966,341.278 222.772 M116.250 254.146 C 118.570 255.247,117.572 257.093,115.196 256.094 C 112.072 254.781,111.466 257.229,114.551 258.696 C 117.744 260.213,118.463 261.321,117.839 263.762 C 117.178 266.352,109.766 266.654,109.766 264.091 C 109.766 263.157,111.296 262.412,111.924 263.040 C 112.889 264.005,114.423 264.260,115.112 263.571 C 116.003 262.680,115.409 261.446,113.839 260.928 C 111.512 260.160,110.156 258.737,110.156 257.065 C 110.156 254.180,113.224 252.711,116.250 254.146 M130.006 254.785 C 130.123 255.800,130.043 255.859,128.553 255.859 L 126.976 255.859 126.867 260.840 L 126.758 265.820 125.781 265.820 L 124.805 265.820 124.696 260.862 L 124.586 255.903 122.941 255.784 C 121.696 255.693,121.262 255.485,121.156 254.930 C 120.933 253.751,121.827 253.507,125.977 253.612 L 129.883 253.711 130.006 254.785 M177.803 254.561 C 183.714 258.023,180.900 265.775,173.721 265.806 L 170.508 265.820 170.399 260.174 C 170.339 257.069,170.387 254.275,170.506 253.966 C 170.814 253.162,176.158 253.597,177.803 254.561 M192.116 254.785 L 192.239 255.859 189.479 255.859 L 186.719 255.859 186.719 257.227 L 186.719 258.594 189.063 258.594 L 191.406 258.594 191.406 259.766 L 191.406 260.938 189.063 260.938 L 186.719 260.938 186.719 262.288 L 186.719 263.638 189.551 263.752 C 192.281 263.863,192.383 263.902,192.383 264.844 C 192.383 265.815,192.360 265.821,188.379 265.932 L 184.375 266.043 184.375 260.040 C 184.375 252.947,184.049 253.461,188.458 253.600 C 191.992 253.711,191.992 253.711,192.116 254.785 M201.723 254.062 C 203.343 254.739,203.626 255.169,203.007 256.015 C 202.567 256.617,202.399 256.624,201.126 256.092 C 199.883 255.573,199.634 255.573,198.886 256.097 C 197.760 256.886,198.337 257.980,200.202 258.596 C 205.514 260.349,205.150 266.020,199.726 266.014 C 198.354 266.013,195.703 264.815,195.703 264.197 C 195.703 263.004,196.990 262.562,198.091 263.376 C 199.007 264.053,199.427 264.140,200.295 263.835 C 201.973 263.245,201.682 262.088,199.566 260.939 C 196.199 259.111,195.304 257.765,196.130 255.772 C 196.970 253.744,199.276 253.039,201.723 254.062 M225.953 253.879 C 229.578 254.474,230.934 257.798,228.530 260.202 L 227.373 261.359 228.708 263.445 C 230.123 265.657,230.112 266.016,228.629 266.016 C 227.916 266.016,227.365 265.473,226.253 263.676 C 224.333 260.574,223.517 260.546,223.359 263.574 C 223.250 265.678,223.180 265.820,222.266 265.820 L 221.289 265.820 221.180 260.174 C 221.038 252.783,220.843 253.040,225.953 253.879 M240.409 254.443 C 242.415 255.757,242.608 258.599,240.813 260.394 L 239.862 261.346 241.025 263.236 C 242.477 265.595,242.479 266.016,241.042 266.016 C 240.046 266.016,239.729 265.711,238.608 263.672 C 236.882 260.533,236.020 260.502,235.859 263.574 C 235.748 265.701,235.685 265.827,234.668 265.944 L 233.594 266.068 233.594 260.052 C 233.594 256.743,233.704 253.926,233.840 253.791 C 234.290 253.340,239.518 253.859,240.409 254.443 M253.898 254.395 C 259.563 257.289,257.692 266.017,251.407 266.015 C 244.907 266.013,242.828 257.241,248.633 254.306 C 250.641 253.291,251.775 253.310,253.898 254.395 M304.042 254.600 C 309.890 258.026,307.021 265.775,299.892 265.806 L 296.680 265.820 296.571 260.210 C 296.492 256.151,296.598 254.436,296.952 254.009 C 297.596 253.233,302.390 253.632,304.042 254.600 M319.003 254.325 C 324.881 257.170,322.927 265.820,316.406 265.820 C 309.817 265.820,307.782 257.360,313.659 254.395 C 315.815 253.306,316.870 253.292,319.003 254.325 M331.345 253.766 C 334.653 254.313,336.062 258.257,333.653 260.224 L 332.540 261.133 333.848 263.191 C 335.470 265.743,335.478 266.097,333.909 265.943 C 332.852 265.839,332.463 265.478,331.353 263.574 C 330.484 262.084,329.793 261.328,329.299 261.328 C 328.667 261.328,328.537 261.667,328.437 263.574 C 328.328 265.678,328.259 265.820,327.344 265.820 L 326.367 265.820 326.258 260.174 C 326.118 252.875,326.099 252.899,331.345 253.766 M59.325 259.473 C 61.693 265.832,61.691 265.820,60.269 265.820 C 59.408 265.820,59.140 265.582,58.845 264.551 C 58.254 262.492,53.925 262.584,53.170 264.671 C 52.640 266.136,50.421 266.643,50.704 265.234 C 51.570 260.922,54.858 253.906,56.013 253.906 C 57.251 253.906,57.256 253.915,59.325 259.473 M70.117 257.837 L 72.852 261.744 72.963 257.825 L 73.074 253.906 74.243 253.906 L 75.411 253.906 75.303 259.863 L 75.195 265.820 74.208 265.935 C 73.353 266.035,72.833 265.498,70.302 261.896 L 67.383 257.741 67.188 261.781 C 66.994 265.777,66.982 265.820,66.016 265.820 L 65.039 265.820 64.931 259.863 L 64.823 253.906 66.103 253.917 C 67.277 253.928,67.608 254.250,70.117 257.837 M87.509 259.668 C 89.889 266.092,89.850 265.820,88.394 265.820 C 87.533 265.820,87.265 265.582,86.970 264.551 C 86.379 262.492,82.050 262.584,81.295 264.671 C 80.765 266.136,78.546 266.643,78.829 265.234 C 79.695 260.925,82.983 253.906,84.136 253.906 L 85.375 253.906 87.509 259.668 M95.313 258.771 L 95.313 263.636 97.949 263.752 C 100.471 263.862,100.586 263.910,100.586 264.844 C 100.586 265.817,100.573 265.820,96.875 265.820 L 93.164 265.820 93.056 259.863 L 92.948 253.906 94.130 253.906 L 95.313 253.906 95.313 258.771 M106.250 259.987 L 106.250 266.068 105.176 265.944 L 104.102 265.820 103.994 259.863 L 103.886 253.906 105.068 253.906 L 106.250 253.906 106.250 259.987 M138.227 254.590 C 138.689 255.458,142.097 264.452,142.261 265.234 C 142.541 266.578,140.098 265.925,139.704 264.551 C 139.114 262.492,134.784 262.584,134.029 264.671 C 133.500 266.136,131.273 266.645,131.567 265.234 C 133.025 258.240,136.886 252.070,138.227 254.590 M153.837 256.055 C 154.544 257.236,155.195 258.203,155.283 258.203 C 155.372 258.203,156.063 257.236,156.819 256.055 C 157.986 254.230,158.371 253.906,159.370 253.906 C 160.864 253.906,160.919 253.699,158.398 257.566 C 156.344 260.717,156.250 260.975,156.250 263.439 C 156.250 265.927,156.216 266.016,155.273 266.016 C 154.327 266.016,154.297 265.932,154.297 263.358 C 154.297 261.048,154.136 260.446,153.070 258.768 C 152.395 257.705,151.426 256.177,150.917 255.371 L 149.990 253.906 151.271 253.906 C 152.407 253.906,152.697 254.149,153.837 256.055 M215.519 259.277 C 218.045 265.990,218.009 265.793,216.737 265.940 C 215.854 266.042,215.632 265.854,215.242 264.671 L 214.783 263.281 212.331 263.281 C 209.899 263.281,209.876 263.292,209.515 264.551 C 209.219 265.582,208.951 265.820,208.091 265.820 C 206.680 265.820,206.653 266.000,209.003 259.554 C 211.053 253.933,211.068 253.906,212.280 253.906 C 213.486 253.906,213.517 253.958,215.519 259.277 M263.281 258.789 L 263.281 263.672 266.016 263.672 L 268.750 263.672 268.750 264.844 L 268.750 266.016 265.039 266.016 L 261.328 266.016 261.328 259.961 L 261.328 253.906 262.305 253.906 L 263.281 253.906 263.281 258.789 M274.524 258.869 L 274.633 263.637 277.258 263.752 C 279.767 263.862,279.883 263.910,279.883 264.844 C 279.883 265.811,279.846 265.821,276.074 265.932 L 272.266 266.044 272.266 259.949 L 272.266 253.854 273.340 253.978 L 274.414 254.102 274.524 258.869 M290.983 259.013 C 293.680 265.950,293.693 266.016,292.405 266.016 C 291.587 266.016,291.245 265.725,290.795 264.648 C 290.233 263.302,290.188 263.281,287.891 263.281 C 285.593 263.281,285.549 263.302,284.986 264.648 C 284.545 265.704,284.188 266.016,283.418 266.016 C 282.129 266.016,282.076 266.340,284.463 259.671 L 286.523 253.913 287.760 253.909 C 288.986 253.906,289.016 253.955,290.983 259.013 M347.004 259.655 C 348.266 262.950,349.059 265.550,348.863 265.746 C 348.212 266.397,347.068 265.815,346.512 264.550 C 345.644 262.581,341.328 262.581,340.767 264.551 C 340.488 265.529,340.161 265.849,339.343 265.944 C 337.914 266.110,337.938 265.948,340.291 259.473 L 342.313 253.906 343.558 253.906 C 344.801 253.906,344.805 253.914,347.004 259.655 M172.656 259.766 L 172.656 263.672 174.541 263.672 C 177.674 263.672,179.428 260.709,177.967 257.885 C 177.176 256.355,176.264 255.859,174.244 255.859 L 172.656 255.859 172.656 259.766 M223.438 257.617 L 223.438 259.375 224.922 259.375 C 226.590 259.375,227.344 258.828,227.344 257.617 C 227.344 256.406,226.590 255.859,224.922 255.859 L 223.438 255.859 223.438 257.617 M235.938 257.617 L 235.938 259.375 237.508 259.375 C 238.783 259.375,239.159 259.200,239.502 258.448 C 240.196 256.924,239.367 255.859,237.486 255.859 L 235.938 255.859 235.938 257.617 M248.668 257.061 C 246.204 259.989,248.434 264.640,251.933 263.872 C 254.896 263.221,256.066 258.762,253.787 256.802 C 252.147 255.391,249.980 255.501,248.668 257.061 M298.828 259.766 L 298.828 263.672 300.533 263.672 C 303.640 263.672,305.460 261.011,304.288 258.181 C 303.616 256.560,302.473 255.859,300.499 255.859 L 298.828 255.859 298.828 259.766 M314.203 256.430 C 312.279 257.777,312.061 261.193,313.794 262.822 C 317.494 266.298,322.391 260.591,318.921 256.847 C 317.859 255.701,315.537 255.496,314.203 256.430 M328.516 257.617 L 328.516 259.375 330.000 259.375 C 331.668 259.375,332.422 258.828,332.422 257.617 C 332.422 256.406,331.668 255.859,330.000 255.859 L 328.516 255.859 328.516 257.617 M55.202 258.986 L 54.350 261.328 56.044 261.328 L 57.737 261.328 57.046 259.473 C 56.665 258.452,56.287 257.398,56.204 257.131 C 56.122 256.863,55.671 257.698,55.202 258.986 M83.307 258.956 L 82.454 261.328 84.158 261.328 L 85.862 261.328 85.171 259.473 C 84.790 258.452,84.408 257.385,84.320 257.100 C 84.232 256.816,83.777 257.651,83.307 258.956 M136.062 258.986 L 135.209 261.328 136.903 261.328 L 138.597 261.328 137.905 259.473 C 137.525 258.452,137.146 257.398,137.064 257.131 C 136.981 256.863,136.530 257.698,136.062 258.986 M287.225 258.271 C 286.976 259.200,286.653 260.269,286.508 260.645 C 286.283 261.228,286.482 261.328,287.875 261.328 C 289.690 261.328,289.691 261.321,288.313 258.077 L 287.678 256.581 287.225 258.271 M342.825 258.789 C 342.017 261.352,342.046 261.421,343.866 261.256 L 345.232 261.133 344.378 258.852 L 343.524 256.571 342.825 258.789 M211.567 258.837 C 210.720 261.324,210.721 261.328,212.462 261.328 L 213.987 261.328 213.209 259.277 C 212.781 258.149,212.379 257.173,212.314 257.108 C 212.250 257.042,211.914 257.821,211.567 258.837 M169.691 276.327 C 171.324 277.010,171.595 277.434,170.955 278.309 C 170.481 278.958,170.377 278.960,169.190 278.346 C 167.818 277.636,166.612 277.806,166.246 278.761 C 165.900 279.662,166.268 280.027,168.537 281.030 C 172.014 282.568,172.884 284.988,170.733 287.139 C 168.540 289.333,162.229 287.789,164.251 285.554 C 164.889 284.849,164.943 284.850,166.229 285.609 C 167.644 286.444,168.911 286.317,169.301 285.301 C 169.628 284.449,169.319 284.089,167.454 283.152 C 161.637 280.228,163.732 273.837,169.691 276.327 M184.341 276.863 C 188.129 279.667,188.023 285.169,184.139 287.396 C 178.207 290.797,172.046 283.133,176.570 277.981 C 178.519 275.761,182.148 275.239,184.341 276.863 M198.366 277.098 C 198.489 278.122,198.482 278.125,195.705 278.125 L 192.922 278.125 193.043 279.552 L 193.164 280.978 195.508 281.016 C 197.763 281.053,197.856 281.095,197.975 282.129 L 198.099 283.203 195.534 283.203 L 192.969 283.203 192.969 285.769 C 192.969 288.207,192.925 288.329,192.090 288.211 C 191.054 288.064,190.465 276.754,191.461 276.138 C 192.829 275.293,198.239 276.045,198.366 277.098 M210.021 276.310 C 210.823 277.069,210.160 277.944,208.703 278.049 L 207.054 278.169 206.945 283.127 L 206.836 288.086 205.859 288.086 L 204.883 288.086 204.773 283.105 L 204.664 278.125 202.918 278.125 C 201.258 278.125,200.432 277.041,201.375 276.099 C 201.544 275.930,209.834 276.132,210.021 276.310 M216.601 279.600 C 217.160 281.474,217.709 283.271,217.821 283.594 C 217.933 283.916,218.591 282.422,219.283 280.273 C 221.122 274.568,222.029 274.524,223.784 280.058 C 225.291 284.812,225.065 284.810,226.386 280.078 L 227.477 276.172 228.757 276.172 C 229.979 276.172,230.021 276.221,229.684 277.246 C 229.489 277.837,228.607 280.572,227.723 283.324 C 225.605 289.917,225.070 289.993,223.009 283.999 L 221.604 279.911 220.350 283.676 C 218.214 290.087,217.463 289.899,215.058 282.355 C 212.983 275.843,213.043 276.265,214.160 276.081 C 215.467 275.866,215.501 275.915,216.601 279.600 M239.788 281.516 C 242.238 287.946,242.265 288.086,241.016 288.086 C 240.289 288.086,239.896 287.761,239.480 286.816 C 238.592 284.799,234.619 284.867,233.764 286.914 C 233.190 288.287,231.251 288.965,231.249 287.793 C 231.246 285.792,235.395 276.198,236.315 276.079 C 237.683 275.902,237.599 275.770,239.788 281.516 M250.714 276.168 C 253.493 276.179,254.880 280.337,252.798 282.418 L 251.691 283.526 252.993 285.592 C 254.353 287.747,254.274 288.444,252.699 288.217 C 252.075 288.127,251.377 287.386,250.462 285.840 C 249.610 284.403,248.873 283.594,248.413 283.594 C 247.813 283.594,247.676 283.963,247.578 285.840 C 247.468 287.944,247.399 288.086,246.484 288.086 L 245.508 288.086 245.399 282.440 C 245.263 275.403,245.188 275.611,247.762 275.920 C 248.886 276.055,250.214 276.167,250.714 276.168 M265.625 277.175 C 265.625 278.091,265.526 278.125,262.891 278.125 L 260.156 278.125 260.156 279.492 L 260.156 280.859 262.500 280.859 L 264.844 280.859 264.844 282.031 L 264.844 283.203 262.500 283.203 L 260.156 283.203 260.156 284.570 L 260.156 285.938 262.868 285.938 C 265.673 285.938,266.227 286.219,265.838 287.444 C 265.636 288.080,265.175 288.158,261.809 288.124 L 258.008 288.086 257.899 282.440 C 257.762 275.362,257.393 275.953,261.863 276.101 C 265.553 276.223,265.625 276.244,265.625 277.175 M139.102 277.059 C 144.481 280.652,141.746 287.843,134.936 288.010 L 131.836 288.086 131.728 282.129 L 131.620 276.172 134.698 276.172 C 137.247 276.172,138.003 276.324,139.102 277.059 M153.516 277.148 C 153.516 278.100,153.444 278.125,150.684 278.125 L 147.852 278.125 147.852 279.492 L 147.852 280.859 150.293 280.859 L 152.734 280.859 152.734 282.031 C 152.734 283.201,152.730 283.203,150.433 283.203 L 148.132 283.203 147.973 284.570 L 147.813 285.938 150.664 285.938 L 153.516 285.938 153.516 287.125 L 153.516 288.313 149.707 288.197 L 145.898 288.080 145.791 282.126 L 145.683 276.172 149.599 276.172 L 153.516 276.172 153.516 277.148 M133.984 282.031 L 133.984 285.938 135.577 285.938 C 136.816 285.938,137.423 285.684,138.311 284.796 C 140.815 282.292,139.106 278.125,135.577 278.125 L 133.984 278.125 133.984 282.031 M178.635 279.068 C 176.383 281.005,177.519 285.501,180.402 286.061 C 181.783 286.330,183.767 285.359,184.321 284.142 C 186.195 280.029,181.936 276.228,178.635 279.068 M247.656 279.883 L 247.656 281.641 249.141 281.641 C 250.809 281.641,251.563 281.094,251.563 279.883 C 251.563 278.672,250.809 278.125,249.141 278.125 L 247.656 278.125 247.656 279.883 M235.830 281.215 C 234.952 283.689,234.917 283.594,236.701 283.594 L 238.247 283.594 237.692 282.021 C 236.704 279.222,236.560 279.160,235.830 281.215 " stroke="none" fill="#f9f3e7" fill-rule="evenodd"></path><path id="path2" d="M89.265 109.277 C 91.310 114.165,89.544 118.337,82.617 124.986 C 70.582 136.538,70.017 137.258,70.520 140.382 C 71.169 144.402,75.087 149.957,78.952 152.335 C 81.491 153.897,81.604 153.730,79.618 151.346 C 73.099 143.516,74.350 137.805,84.421 129.414 C 90.214 124.588,92.170 121.274,92.489 115.745 C 92.712 111.882,92.470 110.772,91.138 109.537 C 89.922 108.410,88.839 108.260,89.265 109.277 M307.747 116.823 C 299.048 117.449,291.224 120.386,293.569 122.143 C 300.633 127.435,326.345 127.607,332.098 122.401 C 334.341 120.371,327.123 117.439,318.750 116.978 C 316.709 116.866,314.248 116.724,313.281 116.662 C 312.314 116.601,309.824 116.673,307.747 116.823 M97.459 126.923 C 83.941 131.702,79.407 139.454,84.883 148.426 C 87.018 151.925,87.160 153.376,85.549 155.211 C 83.561 157.476,85.414 156.961,88.599 154.364 C 92.049 151.551,92.167 149.940,89.294 144.910 C 85.188 137.722,86.455 134.665,95.917 128.937 C 100.615 126.093,100.915 125.701,97.459 126.923 M291.994 129.785 C 292.309 134.230,292.686 135.521,294.052 136.829 C 300.638 143.136,330.650 141.675,333.218 134.922 C 333.947 133.003,333.700 126.435,332.910 126.765 C 322.748 131.024,303.151 131.234,294.296 127.180 C 293.084 126.626,292.013 126.172,291.916 126.172 C 291.818 126.172,291.853 127.798,291.994 129.785 M291.828 144.653 C 291.680 152.615,295.181 154.763,309.823 155.696 L 313.983 155.961 316.275 153.618 C 319.957 149.855,325.052 147.697,330.618 147.543 L 333.586 147.461 333.590 144.587 C 333.593 141.997,333.526 141.743,332.910 142.010 C 323.085 146.279,302.999 146.283,294.582 142.018 C 291.852 140.635,291.904 140.585,291.828 144.653 M102.734 154.560 L 101.367 155.227 103.842 155.447 C 111.366 156.116,110.136 163.617,101.563 169.344 L 99.414 170.780 100.977 170.513 C 106.084 169.642,112.443 164.287,112.802 160.555 C 113.240 155.993,107.183 152.386,102.734 154.560 M68.945 155.134 C 56.433 156.723,54.757 161.102,66.253 162.169 C 75.888 163.064,96.626 160.968,97.858 158.974 C 98.188 158.440,96.849 158.498,92.159 159.224 C 87.770 159.903,67.962 160.232,65.918 159.661 C 63.545 158.997,65.051 157.501,69.519 156.084 C 72.152 155.249,73.393 154.633,72.233 154.737 C 71.929 154.764,70.449 154.943,68.945 155.134 M291.860 160.132 C 292.074 167.056,296.055 169.534,306.959 169.530 L 310.742 169.528 310.820 166.893 C 310.863 165.444,311.249 163.247,311.678 162.012 L 312.458 159.766 310.233 159.762 C 304.800 159.755,296.915 158.256,293.712 156.621 C 292.891 156.202,292.108 155.859,291.973 155.859 C 291.838 155.859,291.787 157.782,291.860 160.132 M65.170 165.888 C 62.613 166.565,65.488 169.848,69.727 171.091 C 75.580 172.807,95.243 171.164,95.404 168.945 C 95.507 167.528,92.962 167.047,88.865 167.710 C 80.125 169.125,67.969 168.331,68.480 166.380 C 68.678 165.619,67.081 165.382,65.170 165.888 M68.457 174.425 C 66.733 175.155,66.666 176.920,68.319 178.096 C 71.438 180.318,82.742 181.088,89.823 179.562 C 94.590 178.535,94.921 178.301,93.295 177.100 C 91.399 175.701,90.597 175.614,86.656 176.379 C 80.037 177.665,70.287 176.805,69.922 174.904 C 69.732 173.917,69.689 173.903,68.457 174.425 M56.836 180.427 C 50.424 182.025,49.310 184.595,54.432 185.974 C 72.016 190.709,109.227 188.053,108.518 182.114 C 108.391 181.054,107.422 180.394,107.422 181.368 C 107.422 181.914,106.213 182.642,103.756 183.577 C 96.886 186.189,73.719 186.960,63.672 184.911 C 56.407 183.429,55.718 181.947,61.783 180.848 C 65.577 180.160,65.866 179.709,62.500 179.728 C 60.889 179.737,58.340 180.052,56.836 180.427 M110.352 185.572 C 102.812 190.042,80.066 192.433,66.504 190.180 C 62.176 189.461,61.819 189.810,65.723 190.942 C 81.069 195.395,110.282 191.826,112.285 185.254 C 112.611 184.183,112.727 184.164,110.352 185.572 M261.230 283.088 C 261.714 283.181,262.505 283.181,262.988 283.088 C 263.472 282.995,263.076 282.919,262.109 282.919 C 261.143 282.919,260.747 282.995,261.230 283.088 " stroke="none" fill="#18b0c1" fill-rule="evenodd"></path><path id="path3" d="M329.395 151.446 C 328.258 151.595,328.101 151.773,327.878 153.162 C 327.416 156.053,325.092 157.009,322.791 155.254 L 321.485 154.258 319.727 155.727 C 317.659 157.456,317.719 157.217,318.945 158.824 C 320.803 161.259,320.000 163.342,316.992 163.890 C 315.023 164.249,314.984 164.321,315.228 167.058 L 315.430 169.326 316.893 169.562 C 319.732 170.021,320.780 172.241,319.141 174.325 C 317.335 176.621,320.905 180.276,322.852 178.125 C 324.430 176.380,327.734 177.503,327.734 179.784 C 327.734 181.782,328.044 182.031,330.523 182.031 C 332.997 182.031,332.977 182.048,333.386 179.591 C 333.805 177.066,335.874 176.481,338.342 178.189 C 340.757 179.860,344.330 176.353,342.188 174.414 C 340.344 172.745,341.617 169.540,344.130 169.525 C 345.924 169.514,346.171 169.086,345.877 166.491 L 345.608 164.115 344.128 163.865 C 341.317 163.390,340.409 161.268,342.021 158.942 L 343.097 157.391 341.586 155.844 C 339.806 154.021,339.717 154.006,338.210 155.273 C 335.980 157.150,333.342 155.979,333.127 153.016 C 332.997 151.220,332.553 151.033,329.395 151.446 M334.224 161.921 C 338.327 165.051,337.466 170.630,332.593 172.491 C 330.429 173.317,328.435 172.857,326.385 171.057 C 320.678 166.046,328.175 157.308,334.224 161.921 " stroke="none" fill="#f16f2c" fill-rule="evenodd"></path><path id="path4" d="M265.352 108.495 C 267.458 108.565,270.798 108.565,272.774 108.494 C 274.750 108.423,273.027 108.366,268.945 108.366 C 264.863 108.366,263.246 108.424,265.352 108.495 M122.063 148.047 C 122.063 169.209,122.110 177.866,122.168 167.285 C 122.226 156.704,122.226 139.390,122.168 128.809 C 122.110 118.228,122.063 126.885,122.063 148.047 M203.313 148.438 C 203.313 169.600,203.360 178.257,203.418 167.676 C 203.476 157.095,203.476 139.780,203.418 129.199 C 203.360 118.618,203.313 127.275,203.313 148.438 M310.659 112.398 C 311.902 112.476,313.836 112.476,314.956 112.397 C 316.076 112.318,315.059 112.255,312.695 112.255 C 310.332 112.256,309.416 112.321,310.659 112.398 M92.690 114.258 C 92.693 115.332,92.769 115.725,92.858 115.131 C 92.948 114.538,92.946 113.659,92.853 113.178 C 92.760 112.698,92.687 113.184,92.690 114.258 M337.676 133.398 C 337.676 140.918,337.728 143.939,337.792 140.112 C 337.856 136.284,337.856 130.132,337.792 126.440 C 337.728 122.747,337.676 125.879,337.676 133.398 M287.683 142.969 C 287.683 155.322,287.732 160.376,287.793 154.199 C 287.853 148.022,287.853 137.915,287.793 131.738 C 287.732 125.562,287.683 130.615,287.683 142.969 M137.681 162.305 C 137.681 173.047,137.731 177.385,137.793 171.945 C 137.854 166.506,137.854 157.717,137.793 152.414 C 137.731 147.112,137.681 151.563,137.681 162.305 M330.762 147.541 C 331.245 147.634,332.036 147.634,332.520 147.541 C 333.003 147.448,332.607 147.372,331.641 147.372 C 330.674 147.372,330.278 147.448,330.762 147.541 M352.081 150.195 C 352.083 151.699,352.154 152.267,352.238 151.456 C 352.323 150.646,352.321 149.415,352.235 148.722 C 352.149 148.028,352.080 148.691,352.081 150.195 M80.957 160.035 C 81.333 160.133,81.948 160.133,82.324 160.035 C 82.700 159.937,82.393 159.856,81.641 159.856 C 80.889 159.856,80.581 159.937,80.957 160.035 M345.794 165.625 C 345.794 166.377,345.874 166.685,345.972 166.309 C 346.071 165.933,346.071 165.317,345.972 164.941 C 345.874 164.565,345.794 164.873,345.794 165.625 M67.682 165.515 C 68.334 165.613,68.659 165.847,68.501 166.103 C 68.344 166.356,68.420 166.415,68.690 166.248 C 69.549 165.717,69.135 165.235,67.871 165.293 C 66.680 165.348,66.668 165.362,67.682 165.515 M352.109 170.898 C 352.110 174.121,352.170 175.387,352.244 173.713 C 352.317 172.038,352.317 169.401,352.243 167.853 C 352.169 166.305,352.109 167.676,352.109 170.898 M310.638 167.578 C 310.638 168.330,310.718 168.638,310.816 168.262 C 310.914 167.886,310.914 167.271,310.816 166.895 C 310.718 166.519,310.638 166.826,310.638 167.578 M62.305 179.495 C 63.198 179.806,65.556 179.891,65.379 179.606 C 65.274 179.436,64.452 179.311,63.551 179.328 C 62.651 179.345,62.090 179.420,62.305 179.495 M71.973 186.207 C 72.349 186.305,72.964 186.305,73.340 186.207 C 73.716 186.109,73.408 186.028,72.656 186.028 C 71.904 186.028,71.597 186.109,71.973 186.207 M77.246 186.213 C 77.729 186.306,78.521 186.306,79.004 186.213 C 79.487 186.120,79.092 186.044,78.125 186.044 C 77.158 186.044,76.763 186.120,77.246 186.213 M72.766 188.569 C 73.793 188.650,75.375 188.649,76.281 188.567 C 77.188 188.485,76.348 188.419,74.414 188.420 C 72.480 188.421,71.739 188.488,72.766 188.569 M87.598 192.847 C 87.974 192.946,88.589 192.946,88.965 192.847 C 89.341 192.749,89.033 192.669,88.281 192.669 C 87.529 192.669,87.222 192.749,87.598 192.847 M143.144 224.023 C 143.144 231.328,143.197 234.261,143.261 230.541 C 143.325 226.822,143.325 220.845,143.261 217.260 C 143.197 213.675,143.144 216.719,143.144 224.023 M148.175 213.867 C 148.177 215.371,148.247 215.938,148.332 215.128 C 148.417 214.318,148.415 213.087,148.329 212.394 C 148.243 211.700,148.173 212.363,148.175 213.867 M225.566 224.805 C 225.567 232.324,225.619 235.345,225.683 231.518 C 225.747 227.690,225.747 221.538,225.683 217.846 C 225.619 214.154,225.566 217.285,225.566 224.805 M148.046 227.813 C 147.939 233.979,147.986 238.890,148.151 238.725 C 148.315 238.560,148.403 233.515,148.346 227.513 L 148.241 216.602 148.046 227.813 M291.523 224.609 C 291.523 225.791,291.597 226.274,291.686 225.684 C 291.776 225.093,291.776 224.126,291.686 223.535 C 291.597 222.944,291.523 223.428,291.523 224.609 M122.569 223.724 C 123.488 223.807,124.894 223.805,125.694 223.721 C 126.494 223.638,125.742 223.570,124.023 223.571 C 122.305 223.573,121.650 223.642,122.569 223.724 M281.348 234.264 C 281.938 234.354,282.905 234.354,283.496 234.264 C 284.087 234.175,283.604 234.101,282.422 234.101 C 281.240 234.101,280.757 234.175,281.348 234.264 M293.450 235.938 C 293.450 236.689,293.530 236.997,293.629 236.621 C 293.727 236.245,293.727 235.630,293.629 235.254 C 293.530 234.878,293.450 235.186,293.450 235.938 M143.323 238.793 C 143.498 238.967,144.500 239.052,145.551 238.982 L 147.461 238.855 145.233 238.666 C 144.008 238.562,143.148 238.619,143.323 238.793 M175.352 238.791 C 175.525 238.964,176.704 239.049,177.970 238.981 L 180.273 238.857 177.655 238.667 C 176.214 238.562,175.178 238.618,175.352 238.791 M319.495 238.793 C 319.670 238.967,320.672 239.052,321.723 238.982 L 323.633 238.855 321.405 238.666 C 320.180 238.562,319.320 238.619,319.495 238.793 M49.707 238.952 C 50.298 239.041,51.265 239.041,51.855 238.952 C 52.446 238.862,51.963 238.789,50.781 238.789 C 49.600 238.789,49.116 238.862,49.707 238.952 M72.759 238.952 C 73.353 239.042,74.232 239.040,74.712 238.947 C 75.193 238.854,74.707 238.781,73.633 238.784 C 72.559 238.787,72.166 238.862,72.759 238.952 M84.277 238.954 C 84.976 239.041,86.118 239.041,86.816 238.954 C 87.515 238.868,86.943 238.797,85.547 238.797 C 84.150 238.797,83.579 238.868,84.277 238.954 M104.395 238.952 C 104.985 239.041,105.952 239.041,106.543 238.952 C 107.134 238.862,106.650 238.789,105.469 238.789 C 104.287 238.789,103.804 238.862,104.395 238.952 M116.113 238.952 C 116.704 239.041,117.671 239.041,118.262 238.952 C 118.853 238.862,118.369 238.789,117.188 238.789 C 116.006 238.789,115.522 238.862,116.113 238.952 M131.941 238.955 C 132.643 239.042,133.697 239.040,134.284 238.951 C 134.871 238.862,134.297 238.791,133.008 238.793 C 131.719 238.795,131.238 238.868,131.941 238.955 M156.348 238.952 C 156.938 239.041,157.905 239.041,158.496 238.952 C 159.087 238.862,158.604 238.789,157.422 238.789 C 156.240 238.789,155.757 238.862,156.348 238.952 M196.777 238.954 C 197.476 239.041,198.618 239.041,199.316 238.954 C 200.015 238.868,199.443 238.797,198.047 238.797 C 196.650 238.797,196.079 238.868,196.777 238.954 M215.723 238.952 C 216.313 239.041,217.280 239.041,217.871 238.952 C 218.462 238.862,217.979 238.789,216.797 238.789 C 215.615 238.789,215.132 238.862,215.723 238.952 M226.855 238.954 C 227.554 239.041,228.696 239.041,229.395 238.954 C 230.093 238.868,229.521 238.797,228.125 238.797 C 226.729 238.797,226.157 238.868,226.855 238.954 M240.534 238.955 C 241.236 239.042,242.291 239.040,242.878 238.951 C 243.465 238.862,242.891 238.791,241.602 238.793 C 240.313 238.795,239.832 238.868,240.534 238.955 M263.581 238.955 C 264.283 239.042,265.338 239.040,265.925 238.951 C 266.512 238.862,265.938 238.791,264.648 238.793 C 263.359 238.795,262.879 238.868,263.581 238.955 M279.807 238.964 C 282.344 239.032,286.387 239.032,288.792 238.963 C 291.196 238.895,289.121 238.839,284.180 238.839 C 279.238 238.840,277.271 238.896,279.807 238.964 M302.644 238.955 C 303.346 239.042,304.400 239.040,304.987 238.951 C 305.574 238.862,305.000 238.791,303.711 238.793 C 302.422 238.795,301.942 238.868,302.644 238.955 M332.129 238.952 C 332.720 239.041,333.687 239.041,334.277 238.952 C 334.868 238.862,334.385 238.789,333.203 238.789 C 332.021 238.789,331.538 238.862,332.129 238.952 M352.253 238.955 C 352.955 239.042,354.010 239.040,354.597 238.951 C 355.184 238.862,354.609 238.791,353.320 238.793 C 352.031 238.795,351.551 238.868,352.253 238.955 M113.379 253.785 C 113.755 253.883,114.370 253.883,114.746 253.785 C 115.122 253.687,114.814 253.606,114.063 253.606 C 113.311 253.606,113.003 253.687,113.379 253.785 M123.730 253.804 C 124.858 253.883,126.704 253.883,127.832 253.804 C 128.960 253.725,128.037 253.660,125.781 253.660 C 123.525 253.660,122.603 253.725,123.730 253.804 M170.484 254.022 C 170.377 254.300,170.339 257.069,170.399 260.174 L 170.508 265.820 173.242 265.851 L 175.977 265.883 173.340 265.736 L 170.703 265.589 170.703 259.767 L 170.703 253.945 172.949 253.804 L 175.195 253.663 172.937 253.589 C 171.391 253.539,170.617 253.675,170.484 254.022 M186.426 253.803 C 187.446 253.883,189.116 253.883,190.137 253.803 C 191.157 253.722,190.322 253.656,188.281 253.656 C 186.240 253.656,185.405 253.722,186.426 253.803 M198.926 253.785 C 199.302 253.883,199.917 253.883,200.293 253.785 C 200.669 253.687,200.361 253.606,199.609 253.606 C 198.857 253.606,198.550 253.687,198.926 253.785 M222.168 253.791 C 222.651 253.884,223.442 253.884,223.926 253.791 C 224.409 253.698,224.014 253.622,223.047 253.622 C 222.080 253.622,221.685 253.698,222.168 253.791 M235.454 253.792 C 235.940 253.885,236.643 253.882,237.016 253.784 C 237.390 253.686,236.992 253.610,236.133 253.614 C 235.273 253.618,234.968 253.698,235.454 253.792 M250.488 253.785 C 250.864 253.883,251.479 253.883,251.855 253.785 C 252.231 253.687,251.924 253.606,251.172 253.606 C 250.420 253.606,250.112 253.687,250.488 253.785 M298.150 253.796 C 298.744 253.886,299.623 253.883,300.103 253.791 C 300.583 253.698,300.098 253.624,299.023 253.627 C 297.949 253.630,297.556 253.706,298.150 253.796 M315.723 253.785 C 316.099 253.883,316.714 253.883,317.090 253.785 C 317.466 253.687,317.158 253.606,316.406 253.606 C 315.654 253.606,315.347 253.687,315.723 253.785 M326.344 254.022 C 325.629 255.884,326.391 265.822,327.252 265.872 C 327.988 265.916,328.005 265.895,327.350 265.747 C 326.604 265.580,326.563 265.266,326.563 259.758 L 326.563 253.945 328.809 253.804 L 331.055 253.663 328.796 253.589 C 327.251 253.539,326.477 253.675,326.344 254.022 M75.086 259.712 L 75.000 265.714 73.849 265.545 C 73.216 265.452,72.786 265.520,72.895 265.696 C 73.212 266.208,75.006 266.064,75.219 265.509 C 75.326 265.231,75.359 262.462,75.293 259.357 L 75.172 253.711 75.086 259.712 M274.395 259.081 L 274.414 263.867 277.051 263.983 C 279.349 264.083,279.688 264.194,279.688 264.847 C 279.688 265.524,279.328 265.610,275.976 265.731 L 272.264 265.865 276.073 265.843 C 279.870 265.820,279.883 265.817,279.883 264.844 C 279.883 263.910,279.767 263.862,277.258 263.752 L 274.633 263.637 274.505 258.966 L 274.376 254.296 274.395 259.081 M296.663 259.961 L 296.680 265.820 299.219 265.847 L 301.758 265.874 299.327 265.732 L 296.896 265.590 296.771 259.846 L 296.646 254.102 296.663 259.961 M64.994 259.375 C 64.994 262.061,65.057 263.159,65.133 261.816 C 65.209 260.474,65.209 258.276,65.133 256.934 C 65.057 255.591,64.994 256.689,64.994 259.375 M186.477 257.227 L 186.523 258.789 189.063 258.822 L 191.602 258.855 189.183 258.706 L 186.764 258.558 186.597 257.111 L 186.430 255.664 186.477 257.227 M235.659 257.617 C 235.662 258.691,235.737 259.084,235.827 258.491 C 235.917 257.897,235.915 257.018,235.822 256.538 C 235.729 256.057,235.656 256.543,235.659 257.617 M186.477 262.305 L 186.523 263.867 189.515 264.063 C 191.160 264.170,192.424 264.126,192.324 263.965 C 192.223 263.804,190.932 263.672,189.454 263.672 L 186.766 263.672 186.598 262.207 L 186.430 260.742 186.477 262.305 M235.617 263.353 C 235.551 265.454,235.489 265.582,234.473 265.736 L 233.398 265.899 234.485 265.957 C 235.799 266.028,236.030 265.528,235.836 263.036 L 235.688 261.133 235.617 263.353 M96.378 263.954 C 97.071 264.040,98.302 264.042,99.112 263.957 C 99.923 263.872,99.355 263.802,97.852 263.800 C 96.348 263.798,95.685 263.868,96.378 263.954 M173.344 263.948 C 173.830 264.042,174.533 264.038,174.907 263.940 C 175.280 263.842,174.883 263.766,174.023 263.770 C 173.164 263.775,172.858 263.855,173.344 263.948 M264.551 263.956 C 265.356 264.041,266.675 264.041,267.480 263.956 C 268.286 263.872,267.627 263.803,266.016 263.803 C 264.404 263.803,263.745 263.872,264.551 263.956 M299.516 263.948 C 300.002 264.042,300.705 264.038,301.079 263.940 C 301.452 263.842,301.055 263.766,300.195 263.770 C 299.336 263.775,299.030 263.855,299.516 263.948 M59.240 265.723 C 59.340 265.884,59.840 266.016,60.352 266.016 C 60.863 266.016,61.363 265.884,61.463 265.723 C 61.563 265.562,61.062 265.430,60.352 265.430 C 59.641 265.430,59.140 265.562,59.240 265.723 M78.849 265.724 C 79.046 265.921,79.623 266.016,80.131 265.936 C 80.913 265.813,80.858 265.758,79.773 265.579 C 78.997 265.450,78.632 265.507,78.849 265.724 M87.365 265.723 C 87.465 265.884,87.965 266.016,88.477 266.016 C 88.988 266.016,89.488 265.884,89.588 265.723 C 89.688 265.562,89.187 265.430,88.477 265.430 C 87.766 265.430,87.265 265.562,87.365 265.723 M131.583 265.724 C 131.780 265.921,132.357 266.016,132.865 265.936 C 133.647 265.813,133.592 265.758,132.507 265.579 C 131.731 265.450,131.367 265.507,131.583 265.724 M140.099 265.723 C 140.199 265.884,140.699 266.016,141.211 266.016 C 141.723 266.016,142.223 265.884,142.322 265.723 C 142.422 265.562,141.922 265.430,141.211 265.430 C 140.500 265.430,140.000 265.562,140.099 265.723 M206.896 265.723 C 206.996 265.884,207.496 266.016,208.008 266.016 C 208.520 266.016,209.020 265.884,209.119 265.723 C 209.219 265.562,208.719 265.430,208.008 265.430 C 207.297 265.430,206.797 265.562,206.896 265.723 M228.711 265.625 L 227.539 265.923 228.590 265.969 C 229.168 265.995,229.750 265.840,229.883 265.625 C 230.016 265.410,230.070 265.255,230.004 265.281 C 229.937 265.306,229.355 265.461,228.711 265.625 M239.797 265.734 C 239.985 265.922,240.644 266.014,241.261 265.937 C 242.294 265.808,242.266 265.781,240.918 265.594 C 240.079 265.478,239.600 265.538,239.797 265.734 M339.258 265.625 L 338.086 265.923 339.137 265.969 C 339.715 265.995,340.297 265.840,340.430 265.625 C 340.562 265.410,340.617 265.255,340.550 265.281 C 340.484 265.306,339.902 265.461,339.258 265.625 M95.020 265.912 C 96.040 265.993,97.710 265.993,98.730 265.912 C 99.751 265.832,98.916 265.766,96.875 265.766 C 94.834 265.766,93.999 265.832,95.020 265.912 M186.230 265.913 C 187.358 265.992,189.204 265.992,190.332 265.913 C 191.460 265.834,190.537 265.770,188.281 265.770 C 186.025 265.770,185.103 265.834,186.230 265.913 M263.197 265.913 C 264.332 265.993,266.090 265.992,267.103 265.912 C 268.116 265.831,267.188 265.767,265.039 265.768 C 262.891 265.769,262.062 265.834,263.197 265.913 M333.301 265.894 C 333.677 265.993,334.292 265.993,334.668 265.894 C 335.044 265.796,334.736 265.716,333.984 265.716 C 333.232 265.716,332.925 265.796,333.301 265.894 M180.566 276.051 C 180.942 276.149,181.558 276.149,181.934 276.051 C 182.310 275.952,182.002 275.872,181.250 275.872 C 180.498 275.872,180.190 275.952,180.566 276.051 M193.266 276.058 C 193.752 276.151,194.455 276.147,194.829 276.050 C 195.202 275.952,194.805 275.875,193.945 275.880 C 193.086 275.884,192.780 275.964,193.266 276.058 M245.484 276.287 C 244.770 278.150,245.531 288.087,246.393 288.138 C 247.129 288.181,247.145 288.160,246.490 288.013 C 245.744 287.846,245.703 287.532,245.703 282.028 L 245.703 276.219 247.168 276.066 L 248.633 275.913 247.156 275.847 C 246.254 275.807,245.603 275.979,245.484 276.287 M206.725 282.883 C 206.643 287.678,206.613 287.842,205.762 288.006 L 204.883 288.175 205.774 288.228 C 206.997 288.301,207.075 287.920,206.933 282.594 L 206.809 277.930 206.725 282.883 M194.629 281.139 C 195.220 281.229,196.187 281.229,196.777 281.139 C 197.368 281.050,196.885 280.976,195.703 280.976 C 194.521 280.976,194.038 281.050,194.629 281.139 M147.808 283.370 C 147.691 283.677,147.672 284.336,147.767 284.835 C 147.902 285.542,147.952 285.468,147.994 284.501 C 148.029 283.678,148.277 283.200,148.730 283.082 C 149.371 282.914,149.370 282.900,148.718 282.858 C 148.335 282.833,147.926 283.063,147.808 283.370 M194.238 283.092 C 194.829 283.182,195.796 283.182,196.387 283.092 C 196.978 283.003,196.494 282.930,195.313 282.930 C 194.131 282.930,193.647 283.003,194.238 283.092 M232.227 287.891 L 231.055 288.189 232.106 288.235 C 232.684 288.260,233.266 288.105,233.398 287.891 C 233.531 287.676,233.586 287.521,233.519 287.546 C 233.453 287.572,232.871 287.727,232.227 287.891 M132.910 288.170 C 133.501 288.260,134.468 288.260,135.059 288.170 C 135.649 288.081,135.166 288.008,133.984 288.008 C 132.803 288.008,132.319 288.081,132.910 288.170 M150.488 288.170 C 151.079 288.260,152.046 288.260,152.637 288.170 C 153.228 288.081,152.744 288.008,151.563 288.008 C 150.381 288.008,149.897 288.081,150.488 288.170 M259.087 288.171 C 259.681 288.261,260.560 288.258,261.041 288.166 C 261.521 288.073,261.035 287.999,259.961 288.002 C 258.887 288.005,258.494 288.081,259.087 288.171 M262.988 288.160 C 263.364 288.258,263.979 288.258,264.355 288.160 C 264.731 288.062,264.424 287.981,263.672 287.981 C 262.920 287.981,262.612 288.062,262.988 288.160 " stroke="none" fill="#a0b3bb" fill-rule="evenodd"></path></g></svg>